<?xml version="1.0" encoding="UTF-8" standalone="no"?><!DOCTYPE svg PUBLIC "-//W3C//DTD SVG 1.1//EN" "http://www.w3.org/Graphics/SVG/1.1/DTD/svg11.dtd"><svg width="100%" height="100%" viewBox="0 0 788 655" version="1.1" xmlns="http://www.w3.org/2000/svg" xmlns:xlink="http://www.w3.org/1999/xlink" xml:space="preserve" xmlns:serif="http://www.serif.com/" style="fill-rule:evenodd;clip-rule:evenodd;stroke-linejoin:round;stroke-miterlimit:2;"><g id="sofa"><path d="M259.486,34.734l-200.834,115.951l0,197.935l200.834,-115.951l0,-197.935Z" style="fill:#a06c9f;"/><path d="M743.459,485.078l-526.444,-303.942l0,-121.882l526.444,303.943l0,121.881Z" style="fill:#c7a9c7;"/><path d="M743.459,485.078l-526.057,-303.718l-158.75,91.654l526.057,303.719l158.75,-91.655Z" style="fill:#e5d7e5;"/><path d="M785.542,338.9l-580.959,-335.416l-42.083,24.296l580.959,335.417l42.083,-24.297Z" style="fill:#e5d7e5;"/><path d="M584.709,576.733l-580.959,-335.417l0,76.054l580.959,335.417l0,-76.054Z" style="fill:#c7a9c7;"/><path d="M584.709,454.851l-54.903,-31.697l0,197.935l54.903,31.698l0,-197.936Z" style="fill:#c7a9c7;"/><path d="M785.542,338.9l-200.833,115.951l0,197.936l200.833,-115.952l0,-197.935Z" style="fill:#a06c9f;"/><path d="M58.652,150.685l-54.902,-31.698l0,197.935l54.902,31.698l0,-197.935Z" style="fill:#c7a9c7;"/><path d="M259.486,34.734l-54.903,-31.698l-200.833,115.951l54.902,31.698l200.834,-115.951Z" style="fill:#e5d7e5;"/><path d="M785.542,338.9l-54.902,-31.698l-200.834,115.952l54.903,31.697l200.833,-115.951Z" style="fill:#e5d7e5;"/></g></svg>